<svg width="157" height="157" viewBox="0 0 157 157" fill="none" xmlns="http://www.w3.org/2000/svg">
<path fill-rule="evenodd" clip-rule="evenodd" d="M71.2868 2.92893C75.192 -0.97631 81.5237 -0.976311 85.4289 2.92893L153.787 71.2868C157.692 75.192 157.692 81.5237 153.787 85.4289L85.4289 153.787C81.5237 157.692 75.192 157.692 71.2868 153.787L2.92893 85.4289C-0.97631 81.5237 -0.976311 75.192 2.92893 71.2868L71.2868 2.92893ZM52.5066 100.858H48.8266V84.8899L42.0106 96.1539H41.5626L34.7466 84.8579V100.858H31.0666V78.4579H35.0346L41.7866 89.6579L48.5706 78.4579H52.5066V100.858ZM69.4209 84.8579H72.8769V100.858H69.4209V98.5539C68.1195 100.367 66.2529 101.274 63.8209 101.274C61.6235 101.274 59.7462 100.463 58.1889 98.8419C56.6315 97.1992 55.8529 95.2045 55.8529 92.8579C55.8529 90.4899 56.6315 88.4952 58.1889 86.8739C59.7462 85.2525 61.6235 84.4419 63.8209 84.4419C66.2529 84.4419 68.1195 85.3379 69.4209 87.1299V84.8579ZM60.7489 96.5379C61.7089 97.4979 62.9142 97.9779 64.3649 97.9779C65.8155 97.9779 67.0209 97.4979 67.9809 96.5379C68.9409 95.5565 69.4209 94.3299 69.4209 92.8579C69.4209 91.3859 68.9409 90.1699 67.9809 89.2099C67.0209 88.2285 65.8155 87.7379 64.3649 87.7379C62.9142 87.7379 61.7089 88.2285 60.7489 89.2099C59.7889 90.1699 59.3089 91.3859 59.3089 92.8579C59.3089 94.3299 59.7889 95.5565 60.7489 96.5379ZM79.9154 89.2739C79.9154 89.8072 80.2034 90.2339 80.7794 90.5539C81.3767 90.8525 82.0914 91.1192 82.9234 91.3539C83.7767 91.5672 84.63 91.8232 85.4834 92.1219C86.3367 92.4205 87.0514 92.9325 87.6274 93.6579C88.2247 94.3619 88.5234 95.2579 88.5234 96.3459C88.5234 97.8819 87.926 99.0872 86.7314 99.9619C85.558 100.837 84.0754 101.274 82.2834 101.274C80.7047 101.274 79.35 100.943 78.2194 100.282C77.0887 99.6205 76.2674 98.7032 75.7554 97.5299L78.7314 95.8019C79.286 97.3379 80.47 98.1059 82.2834 98.1059C84.0967 98.1059 85.0034 97.5085 85.0034 96.3139C85.0034 95.8019 84.7047 95.3859 84.1074 95.0659C83.5314 94.7459 82.8167 94.4792 81.9634 94.2659C81.1314 94.0312 80.2887 93.7645 79.4354 93.4659C78.582 93.1672 77.8567 92.6765 77.2594 91.9939C76.6834 91.2899 76.3954 90.4045 76.3954 89.3379C76.3954 87.8659 76.95 86.6819 78.0594 85.7859C79.19 84.8899 80.5874 84.4419 82.2514 84.4419C83.574 84.4419 84.7474 84.7405 85.7714 85.3379C86.8167 85.9139 87.6167 86.7245 88.1714 87.7699L85.2594 89.4019C84.7047 88.1859 83.702 87.5779 82.2514 87.5779C81.59 87.5779 81.0354 87.7272 80.5874 88.0259C80.1394 88.3032 79.9154 88.7192 79.9154 89.2739ZM99.8644 88.1859H95.8964V95.8659C95.8964 96.5272 96.0457 97.0072 96.3444 97.3059C96.643 97.5832 97.0804 97.7432 97.6564 97.7859C98.2537 97.8072 98.9897 97.7965 99.8644 97.7539V100.858C97.219 101.178 95.3204 100.954 94.1684 100.186C93.0164 99.3965 92.4404 97.9565 92.4404 95.8659V88.1859H89.4964V84.8579H92.4404V81.4019L95.8964 80.3779V84.8579H99.8644V88.1859ZM105.063 94.3299C105.319 95.5459 105.905 96.4845 106.823 97.1459C107.74 97.7859 108.86 98.1059 110.183 98.1059C112.017 98.1059 113.393 97.4445 114.311 96.1219L117.159 97.7859C115.58 100.111 113.244 101.274 110.151 101.274C107.548 101.274 105.447 100.485 103.847 98.9059C102.247 97.3059 101.447 95.2899 101.447 92.8579C101.447 90.4685 102.236 88.4739 103.815 86.8739C105.393 85.2525 107.42 84.4419 109.895 84.4419C112.241 84.4419 114.161 85.2632 115.655 86.9059C117.169 88.5485 117.927 90.5432 117.927 92.8899C117.927 93.2525 117.884 93.7325 117.799 94.3299H105.063ZM105.031 91.5139H114.439C114.204 90.2125 113.66 89.2312 112.807 88.5699C111.975 87.9085 110.993 87.5779 109.863 87.5779C108.583 87.5779 107.516 87.9299 106.663 88.6339C105.809 89.3379 105.265 90.2979 105.031 91.5139ZM124.424 87.5459C125.298 85.5619 126.941 84.5699 129.352 84.5699V88.3139C128.029 88.2285 126.877 88.5485 125.896 89.2739C124.914 89.9779 124.424 91.1512 124.424 92.7939V100.858H120.968V84.8579H124.424V87.5459ZM39.6685 51.9779H49.1085V48.4579H35.9885V70.8579H39.6685V61.7699H48.7885V58.2499H39.6685V51.9779ZM53.895 68.8419C55.5377 70.4632 57.5323 71.2739 59.879 71.2739C62.247 71.2739 64.2417 70.4632 65.863 68.8419C67.5057 67.2205 68.327 65.2259 68.327 62.8579C68.327 60.4899 67.5057 58.4952 65.863 56.8739C64.2417 55.2525 62.247 54.4419 59.879 54.4419C57.5323 54.4419 55.5377 55.2525 53.895 56.8739C52.2523 58.4952 51.431 60.4899 51.431 62.8579C51.431 65.2259 52.2523 67.2205 53.895 68.8419ZM59.879 67.9139C58.471 67.9139 57.287 67.4339 56.327 66.4739C55.367 65.5139 54.887 64.3085 54.887 62.8579C54.887 61.4072 55.367 60.2019 56.327 59.2419C57.287 58.2819 58.471 57.8019 59.879 57.8019C61.287 57.8019 62.471 58.2819 63.431 59.2419C64.391 60.2019 64.871 61.4072 64.871 62.8579C64.871 64.3085 64.391 65.5139 63.431 66.4739C62.471 67.4339 61.287 67.9139 59.879 67.9139ZM79.836 54.5699C77.4253 54.5699 75.7827 55.5619 74.908 57.5459V54.8579H71.452V70.8579H74.908V62.7939C74.908 61.1512 75.3987 59.9779 76.38 59.2739C77.3613 58.5485 78.5133 58.2285 79.836 58.3139V54.5699ZM86.1195 67.1459C85.2022 66.4845 84.6155 65.5459 84.3595 64.3299H97.0955C97.1808 63.7325 97.2235 63.2525 97.2235 62.8899C97.2235 60.5432 96.4662 58.5485 94.9515 56.9059C93.4582 55.2632 91.5382 54.4419 89.1915 54.4419C86.7168 54.4419 84.6902 55.2525 83.1115 56.8739C81.5328 58.4739 80.7435 60.4685 80.7435 62.8579C80.7435 65.2899 81.5435 67.3059 83.1435 68.9059C84.7435 70.4845 86.8448 71.2739 89.4475 71.2739C92.5408 71.2739 94.8768 70.1112 96.4555 67.7859L93.6075 66.1219C92.6902 67.4445 91.3142 68.1059 89.4795 68.1059C88.1568 68.1059 87.0368 67.7859 86.1195 67.1459ZM93.7355 61.5139H84.3275C84.5622 60.2979 85.1062 59.3379 85.9595 58.6339C86.8128 57.9299 87.8795 57.5779 89.1595 57.5779C90.2902 57.5779 91.2715 57.9085 92.1035 58.5699C92.9568 59.2312 93.5008 60.2125 93.7355 61.5139ZM103.607 60.5539C103.031 60.2339 102.743 59.8072 102.743 59.2739C102.743 58.7192 102.967 58.3032 103.415 58.0259C103.863 57.7272 104.418 57.5779 105.079 57.5779C106.53 57.5779 107.533 58.1859 108.087 59.4019L110.999 57.7699C110.445 56.7245 109.645 55.9139 108.599 55.3379C107.575 54.7405 106.402 54.4419 105.079 54.4419C103.415 54.4419 102.018 54.8899 100.887 55.7859C99.7782 56.6819 99.2235 57.8659 99.2235 59.3379C99.2235 60.4045 99.5115 61.2899 100.087 61.9939C100.685 62.6765 101.41 63.1672 102.263 63.4659C103.117 63.7645 103.959 64.0312 104.791 64.2659C105.645 64.4792 106.359 64.7459 106.935 65.0659C107.533 65.3859 107.831 65.8019 107.831 66.3139C107.831 67.5085 106.925 68.1059 105.111 68.1059C103.298 68.1059 102.114 67.3379 101.559 65.8019L98.5835 67.5299C99.0955 68.7032 99.9168 69.6205 101.047 70.2819C102.178 70.9432 103.533 71.2739 105.111 71.2739C106.903 71.2739 108.386 70.8365 109.559 69.9619C110.754 69.0872 111.351 67.8819 111.351 66.3459C111.351 65.2579 111.053 64.3619 110.455 63.6579C109.879 62.9325 109.165 62.4205 108.311 62.1219C107.458 61.8232 106.605 61.5672 105.751 61.3539C104.919 61.1192 104.205 60.8525 103.607 60.5539ZM118.724 58.1859H122.692V54.8579H118.724V50.3779L115.268 51.4019V54.8579H112.324V58.1859H115.268V65.8659C115.268 67.9565 115.844 69.3965 116.996 70.1859C118.148 70.9539 120.047 71.1779 122.692 70.8579V67.7539C121.818 67.7965 121.082 67.8072 120.484 67.7859C119.908 67.7432 119.471 67.5832 119.172 67.3059C118.874 67.0072 118.724 66.5272 118.724 65.8659V58.1859Z" fill="#453F40"/>
</svg>
