<svg width="71" height="30" viewBox="0 0 71 30" fill="none" xmlns="http://www.w3.org/2000/svg">
<path d="M3.92 0.599998V19.48H13.04V23H0.24V0.599998H3.92ZM28.5833 20.984C26.9619 22.6053 24.9673 23.416 22.5993 23.416C20.2313 23.416 18.2366 22.6053 16.6153 20.984C14.9726 19.3413 14.1513 17.3467 14.1513 15C14.1513 12.6533 14.9726 10.6587 16.6153 9.016C18.2366 7.39467 20.2313 6.584 22.5993 6.584C24.9673 6.584 26.9619 7.39467 28.5833 9.016C30.2259 10.6587 31.0473 12.6533 31.0473 15C31.0473 17.3467 30.2259 19.3413 28.5833 20.984ZM17.6073 15C17.6073 16.4507 18.0873 17.656 19.0473 18.616C20.0073 19.576 21.1913 20.056 22.5993 20.056C24.0073 20.056 25.1913 19.576 26.1513 18.616C27.1113 17.656 27.5913 16.4507 27.5913 15C27.5913 13.5493 27.1113 12.344 26.1513 11.384C25.1913 10.424 24.0073 9.944 22.5993 9.944C21.1913 9.944 20.0073 10.424 19.0473 11.384C18.0873 12.344 17.6073 13.5493 17.6073 15ZM46.9083 9.368V7H50.3003V22.264C50.3003 24.696 49.5003 26.5627 47.9003 27.864C46.3216 29.1653 44.3803 29.816 42.0763 29.816C38.3856 29.816 35.8576 28.5253 34.4923 25.944L37.4683 24.216C38.3003 25.8587 39.8576 26.68 42.1403 26.68C43.6336 26.68 44.7963 26.2853 45.6283 25.496C46.4816 24.728 46.9083 23.6507 46.9083 22.264V20.312C45.6069 22.168 43.7509 23.096 41.3403 23.096C39.1003 23.096 37.1909 22.296 35.6123 20.696C34.0549 19.0747 33.2763 17.1227 33.2763 14.84C33.2763 12.536 34.0549 10.5947 35.6123 9.016C37.1696 7.39467 39.0789 6.584 41.3403 6.584C43.7509 6.584 45.6069 7.512 46.9083 9.368ZM38.1723 18.424C39.1536 19.384 40.3696 19.864 41.8203 19.864C43.2709 19.864 44.4763 19.384 45.4363 18.424C46.4176 17.464 46.9083 16.2693 46.9083 14.84C46.9083 13.4107 46.4176 12.216 45.4363 11.256C44.4763 10.296 43.2709 9.816 41.8203 9.816C40.3696 9.816 39.1536 10.296 38.1723 11.256C37.2123 12.216 36.7323 13.4107 36.7323 14.84C36.7323 16.2693 37.2123 17.464 38.1723 18.424ZM67.8645 20.984C66.2432 22.6053 64.2485 23.416 61.8805 23.416C59.5125 23.416 57.5178 22.6053 55.8965 20.984C54.2538 19.3413 53.4325 17.3467 53.4325 15C53.4325 12.6533 54.2538 10.6587 55.8965 9.016C57.5178 7.39467 59.5125 6.584 61.8805 6.584C64.2485 6.584 66.2432 7.39467 67.8645 9.016C69.5072 10.6587 70.3285 12.6533 70.3285 15C70.3285 17.3467 69.5072 19.3413 67.8645 20.984ZM56.8885 15C56.8885 16.4507 57.3685 17.656 58.3285 18.616C59.2885 19.576 60.4725 20.056 61.8805 20.056C63.2885 20.056 64.4725 19.576 65.4325 18.616C66.3925 17.656 66.8725 16.4507 66.8725 15C66.8725 13.5493 66.3925 12.344 65.4325 11.384C64.4725 10.424 63.2885 9.944 61.8805 9.944C60.4725 9.944 59.2885 10.424 58.3285 11.384C57.3685 12.344 56.8885 13.5493 56.8885 15Z" fill="#EFEFEF"/>
</svg>
